<?xml version="1.0" encoding="UTF-8"?>
<svg width="256" height="256" viewBox="0 0 256 256" xmlns="http://www.w3.org/2000/svg">
  <defs>
    <linearGradient id="bgrad" x1="0" y1="0" x2="1" y2="1">
      <stop offset="0" stop-color="#00DBDE"/>
      <stop offset="1" stop-color="#FC00FF"/>
    </linearGradient>
    <filter id="glow2" x="-20%" y="-20%" width="140%" height="140%">
      <feGaussianBlur stdDeviation="4"/>
    </filter>
  </defs>
  <rect width="256" height="256" rx="28" fill="#0a0a0f"/>
  <g transform="translate(28,28)">
    <path d="M50 140c-18-10-22-37-8-53-7-16 2-36 20-42 6-22 32-30 49-17 18-13 45-5 51 17 18 6 27 26 20 42 14 16 10 43-8 53-4 17-21 29-39 26-13 12-33 12-46 0-18 3-35-9-39-26z" fill="url(#bgrad)" opacity="0.95"/>
    <g stroke="#ffffff" stroke-opacity="0.6">
      <circle cx="56" cy="92" r="6" fill="#fff"/><circle cx="92" cy="56" r="6" fill="#fff"/>
      <circle cx="124" cy="84" r="6" fill="#fff"/><circle cx="152" cy="52" r="6" fill="#fff"/>
      <circle cx="84" cy="132" r="6" fill="#fff"/><circle cx="132" cy="136" r="6" fill="#fff"/>
      <circle cx="164" cy="108" r="6" fill="#fff"/>
      <line x1="56" y1="92" x2="92" y2="56"/><line x1="92" y1="56" x2="124" y2="84"/>
      <line x1="124" y1="84" x2="152" y2="52"/><line x1="124" y1="84" x2="84" y2="132"/>
      <line x1="84" y1="132" x2="132" y2="136"/><line x1="132" y1="136" x2="164" y2="108"/>
    </g>
    <circle cx="100" cy="100" r="80" fill="url(#bgrad)" opacity="0.2" filter="url(#glow2)"/>
  </g>
</svg>
